<?xml version="1.0" encoding="UTF-8" standalone="no"?>
<svg
   xmlns:dc="http://purl.org/dc/elements/1.1/"
   xmlns:cc="http://creativecommons.org/ns#"
   xmlns:rdf="http://www.w3.org/1999/02/22-rdf-syntax-ns#"
   xmlns:svg="http://www.w3.org/2000/svg"
   xmlns="http://www.w3.org/2000/svg"
   xmlns:sodipodi="http://sodipodi.sourceforge.net/DTD/sodipodi-0.dtd"
   xmlns:inkscape="http://www.inkscape.org/namespaces/inkscape"
   viewBox="0 0 34.666667 34.666667"
   width="26"
   height="26"
   version="1.1"
   id="svg8"
   sodipodi:docname="icon.svg"
   inkscape:version="0.92.4 (5da689c313, 2019-01-14)"
   style="fill:#000000">
  <metadata
     id="metadata14">
    <rdf:RDF>
      <cc:Work
         rdf:about="">
        <dc:format>image/svg+xml</dc:format>
        <dc:type
           rdf:resource="http://purl.org/dc/dcmitype/StillImage" />
        <dc:title></dc:title>
      </cc:Work>
    </rdf:RDF>
  </metadata>
  <defs
     id="defs12" />
  <sodipodi:namedview
     pagecolor="#ffffff"
     bordercolor="#666666"
     borderopacity="1"
     objecttolerance="10"
     gridtolerance="10"
     guidetolerance="10"
     inkscape:pageopacity="0"
     inkscape:pageshadow="2"
     inkscape:window-width="1920"
     inkscape:window-height="1057"
     id="namedview10"
     showgrid="false"
     inkscape:zoom="13.111111"
     inkscape:cx="-0.41949153"
     inkscape:cy="9"
     inkscape:window-x="-8"
     inkscape:window-y="-8"
     inkscape:window-maximized="1"
     inkscape:current-layer="svg8" />
  <path
     d="M -0.10169489,-1.2316382 H 34.881355 V 35.581922 H -0.10169489 Z"
     id="path2"
     inkscape:connector-curvature="0"
     style="fill:none;stroke-width:1.49527645" />
  <path
     d="m 17.375254,1.8361584 c -8.0461021,0 -14.5616946,6.8718651 -14.5616946,15.3389836 0,8.467119 6.5155925,15.338983 14.5616946,15.338983 8.060678,0 14.590847,-6.871864 14.590847,-15.338983 0,-8.4671185 -6.530169,-15.3389836 -14.590847,-15.3389836 z m 0.01458,27.6101706 c -6.442712,0 -11.6610163,-5.491356 -11.6610163,-12.271187 0,-6.77983 5.2183043,-12.271187 11.6610163,-12.271187 6.442712,0 11.661017,5.491357 11.661017,12.271187 0,6.779831 -5.218305,12.271187 -11.661017,12.271187 z"
     id="path4"
     style="fill:#cdde87;stroke-width:1.49527645"
     inkscape:connector-curvature="0" />
  <path
     d="m 18.118643,8.1017441 -2.927607,-0.1559898 0.741167,10.7632857 9.727808,1.555998 -0.09265,-2.978624 -8.338119,0.428192 z"
     id="path6"
     inkscape:connector-curvature="0"
     sodipodi:nodetypes="ccccccc"
     style="fill:#88aa00;stroke-width:1.49527645" />
  <path
     style="fill:#aad400;stroke-width:1.49527645"
     d="m 17.375254,1.8361584 c -0.195009,0 -0.383834,0.02396 -0.576976,0.031951 V 4.935906 c 0.197574,-0.010431 0.392103,-0.031951 0.59216,-0.031951 6.442712,0 11.661017,5.491357 11.661017,12.271187 0,0.584797 -0.05017,1.154719 -0.125269,1.717646 h 2.941826 c 0.06007,-0.565104 0.0987,-1.135762 0.0987,-1.717646 0,-8.4671185 -6.530776,-15.3389836 -14.591456,-15.3389836 z"
     id="path4-9"
     inkscape:connector-curvature="0" />
</svg>
